<svg width="18" height="18" viewBox="0 0 18 18" fill="none" xmlns="http://www.w3.org/2000/svg">
<path fill-rule="evenodd" clip-rule="evenodd" d="M17.564 2.06405C17.6709 1.95728 17.7558 1.83051 17.8137 1.69096C17.8716 1.55142 17.9014 1.40183 17.9015 1.25075C17.9016 1.09967 17.8719 0.950053 17.8142 0.810437C17.7565 0.670821 17.6718 0.543943 17.565 0.437047C17.4583 0.330151 17.3315 0.24533 17.192 0.187428C17.0524 0.129527 16.9028 0.099677 16.7518 0.0995841C16.6007 0.0994912 16.4511 0.129157 16.3114 0.186887C16.1718 0.244618 16.0449 0.329282 15.938 0.436047L9.00005 7.37405L2.06405 0.436047C1.84816 0.22016 1.55536 0.098877 1.25005 0.098877C0.944738 0.098877 0.651933 0.22016 0.436047 0.436047C0.22016 0.651933 0.098877 0.944738 0.098877 1.25005C0.098877 1.55536 0.22016 1.84816 0.436047 2.06405L7.37405 9.00005L0.436047 15.936C0.329151 16.0429 0.244356 16.1698 0.186504 16.3095C0.128653 16.4492 0.098877 16.5989 0.098877 16.75C0.098877 16.9012 0.128653 17.0509 0.186504 17.1906C0.244356 17.3302 0.329151 17.4571 0.436047 17.564C0.651933 17.7799 0.944737 17.9012 1.25005 17.9012C1.40122 17.9012 1.55091 17.8714 1.69058 17.8136C1.83025 17.7557 1.95715 17.6709 2.06405 17.564L9.00005 10.626L15.938 17.564C16.1539 17.7797 16.4466 17.9007 16.7518 17.9005C17.0569 17.9003 17.3494 17.7789 17.565 17.563C17.7807 17.3472 17.9017 17.0545 17.9015 16.7493C17.9013 16.4442 17.7799 16.1517 17.564 15.936L10.626 9.00005L17.564 2.06405Z" fill="black"/>
</svg>
