<svg width="156" height="26" viewBox="0 0 156 26" fill="none" xmlns="http://www.w3.org/2000/svg">
<path d="M25.0064 0L12.6507 13.4734L0.29506 0H0V25.7087H4.90538V11.944L12.4663 19.9916H12.7983L20.4329 11.944V25.7087H25.3383V0H25.0064Z" fill="#121212"/>
<path d="M28.2843 21.084V25.7087H45.4347V21.084H28.2843ZM44.0701 10.6695H28.2843V15.2941H44.0701V10.6695ZM45.2134 0.218487H28.2843V4.87955H45.2134V0.218487Z" fill="#121212"/>
<path d="M46.8573 0.218487V4.87955H65.6674V0.218487H46.8573ZM53.8281 25.7087H58.7335V8.66667H53.8281V25.7087Z" fill="#121212"/>
<path d="M77.2609 0.218487H67.7083V4.87955H77.1503C79.6214 4.87955 81.1705 6.40896 81.1705 8.59384C81.1705 10.7787 79.6214 12.3445 77.1503 12.3445H67.7083V25.7087H72.6137V16.9692H77.2609C83.0146 16.9692 86.2234 13.2549 86.2234 8.59384C86.2234 3.93277 83.0146 0.218487 77.2609 0.218487Z" fill="#121212"/>
<path d="M93.1541 0.218487H88.2487V26H88.5807L103.223 11.4342V25.7087H108.128V0H107.797L93.1541 14.5294V0.218487Z" fill="#121212"/>
<path d="M125.626 25.7087H131.749L123.413 12.7815L131.195 0.218487H125.81L119.024 10.6331H116V0.218487H111.094V25.7087H116V15.2577H119.135L125.626 25.7087Z" fill="#121212"/>
<path d="M146.558 0.218487H141.542L132.1 25.7087H137.669L144.05 7.5014L150.431 25.7087H156L146.558 0.218487Z" fill="#121212"/>
</svg>
